<svg xmlns="http://www.w3.org/2000/svg" viewBox="0 0 477.3 264.1"><title>OJ103614615</title><g id="Shapes"><path id="path34" d="M122,215.7c0-10.2,14.2-18.5,31.6-18.5s31.6,8.3,31.6,18.5-14.1,18.5-31.6,18.5S122,226,122,215.7" fill="none" stroke="#000" stroke-linecap="round" stroke-linejoin="round" stroke-width="0.67"/><path id="path48" d="M262.5,57.9c0-14.5,17-26.3,38.1-26.3s38.1,11.8,38.1,26.3-17,26.3-38.1,26.3-38.1-11.8-38.1-26.3" fill="none" stroke="#000" stroke-linecap="round" stroke-linejoin="round" stroke-width="0.67"/><path id="path64" d="M384.4,234.2c0-10.6,16.6-19.3,37-19.3s37,8.6,37,19.3-16.6,19.3-37,19.3-37-8.6-37-19.3" fill="none" stroke="#000" stroke-linecap="round" stroke-linejoin="round" stroke-width="0.67"/><path id="path78" d="M13,45.6c0-11.1,13.1-20.2,29.2-20.2s29.2,9,29.2,20.2S58.3,65.8,42.2,65.8,13,56.7,13,45.6" fill="none" stroke="#000" stroke-linecap="round" stroke-linejoin="round" stroke-width="0.67"/><path id="path92" d="M382.7,33.4c0-11.3,18.8-20.5,42-20.5s42,9.2,42,20.5-18.8,20.5-42,20.5-42-9.2-42-20.5" fill="none" stroke="#000" stroke-linecap="round" stroke-linejoin="round" stroke-width="0.67"/><path id="path108" d="M2,176.7c0-11.1,13-20.2,29.1-20.2s29.1,9,29.1,20.2-13,20.2-29.1,20.2S2,187.8,2,176.7" fill="none" stroke="#000" stroke-linecap="round" stroke-linejoin="round" stroke-width="0.67"/><path id="path122" d="M290.1,141.8c0-9.9,15.6-18,34.9-18s34.9,8,34.9,18-15.6,18-34.9,18-34.9-8-34.9-18" fill="none" stroke="#000" stroke-linecap="round" stroke-linejoin="round" stroke-width="0.67"/><path id="path150" d="M382,106.9c0-12.6,21.1-22.8,46.92-22.8s46.91,10.2,46.91,22.8-20.94,22.8-46.91,22.8S382,119.5,382,106.9" fill="none" stroke="#000" stroke-linecap="round" stroke-linejoin="round" stroke-width="0.85"/><path id="path166" d="M252,244.8c0-10.5,16-19,35.8-19s35.8,8.5,35.8,19-16,19-35.8,19-35.8-8.5-35.8-19" fill="none" stroke="#000" stroke-linecap="round" stroke-linejoin="round" stroke-width="0.67"/><path id="path175" d="M77.25,34.1c0-11.7,20.67-21.2,46.12-21.2s46.23,9.5,46.23,21.2-20.67,21.2-46.23,21.2S77.25,45.8,77.25,34.1" fill="none" stroke="#000" stroke-linecap="round" stroke-linejoin="round" stroke-width="0.71"/><g id="shape52-83"><path id="path198" d="M178.19,142.89l-24.3,54.5" fill="none" stroke="#000" stroke-linecap="round" stroke-linejoin="round" stroke-width="0.33"/></g><g id="shape58-89"><path id="path208" d="M416.08,214l-84.7-140.6" fill="none" stroke="#000" stroke-linecap="round" stroke-linejoin="round" stroke-width="0.33"/></g><path id="path220" d="M1.17,242.6c0-11,22.66-20,50.79-20s50.79,9,50.79,20-22.67,20-50.79,20-50.79-8.9-50.79-20" fill="none" stroke="#000" stroke-linecap="round" stroke-linejoin="round" stroke-width="0.78"/><g id="shape63-98"><path id="path227" d="M232.09,98.07,267,73" fill="none" stroke="#000" stroke-linecap="round" stroke-linejoin="round" stroke-width="0.33"/></g><g id="shape65-101"><path id="path232" d="M337.27,64l48.86,33.61" fill="none" stroke="#000" stroke-linecap="round" stroke-linejoin="round" stroke-width="0.33"/></g><g id="shape67-104"><path id="path237" d="M328.08,38.92l54.8-8" fill="none" stroke="#000" stroke-linecap="round" stroke-linejoin="round" stroke-width="0.33"/></g><g id="shape70-107"><path id="path242" d="M99.75,104.13l64.34,17.23" fill="none" stroke="#000" stroke-linecap="round" stroke-linejoin="round" stroke-width="0.33"/></g><g id="shape73-110"><path id="path247" d="M73.75,119.38l57.65,83.48" fill="none" stroke="#000" stroke-linecap="round" stroke-linejoin="round" stroke-width="0.33"/></g><g id="shape76-113"><path id="path252" d="M176.06,228.86,252,245" fill="none" stroke="#000" stroke-linecap="round" stroke-linejoin="round" stroke-width="0.33"/></g><g id="shape77-116"><path id="path257" d="M212.33,150.4l55.9,78.5" fill="none" stroke="#000" stroke-linecap="round" stroke-linejoin="round" stroke-width="0.33"/></g><g id="shape78-119"><path id="path262" d="M290.28,141.38l-46.5-20" fill="none" stroke="#000" stroke-linecap="round" stroke-linejoin="round" stroke-width="0.33"/></g><g id="shape79-122"><path id="path267" d="M122.32,216l-61-28.6" fill="none" stroke="#000" stroke-linecap="round" stroke-linejoin="round" stroke-width="0.33"/></g><g id="shape80-125"><path id="path272" d="M131.39,228.89l-30.31,8.57" fill="none" stroke="#000" stroke-linecap="round" stroke-linejoin="round" stroke-width="0.33"/></g><g id="shape81-128"><path id="path277" d="M175.8,98,67.9,56" fill="none" stroke="#000" stroke-linecap="round" stroke-linejoin="round" stroke-width="0.33"/></g><g id="shape82-131"><path id="path282" d="M304.61,84.14l4.7,40" fill="none" stroke="#000" stroke-linecap="round" stroke-linejoin="round" stroke-width="0.33"/></g><g id="shape94-134"><path id="path287" d="M303.16,109.49h-.3v-1.3c0-.1.1,0,.1,0h.2v.1l.1,1.1h0c0,.1,0,.1-.1.1Z" fill="#fff"/></g><g id="shape96-136"><path id="path292" d="M265.08,29.46,274,38" fill="none" stroke="#000" stroke-linecap="round" stroke-linejoin="round" stroke-width="0.33"/></g><g id="shape97-139"><path id="path297" d="M169.77,37.55l92.3,16.1" fill="none" stroke="#000" stroke-linecap="round" stroke-linejoin="round" stroke-width="0.33"/></g><path id="path78-2" data-name="path78" d="M1.83,99.92C1.83,87.87,24,78,51.17,78c27.37,0,49.33,9.76,49.33,21.92s-22.13,21.91-49.33,21.91S1.83,112,1.83,99.92" fill="none" stroke="#000" stroke-linecap="round" stroke-linejoin="round" stroke-width="0.91"/><path id="path175-2" data-name="path175" d="M195.7,19c0-8.7,17.4-15.9,38.8-15.9s38.8,7.1,38.8,15.9-17.4,15.9-38.8,15.9S195.7,27.8,195.7,19" fill="none" stroke="#000" stroke-linecap="round" stroke-linejoin="round" stroke-width="0.67"/><path id="path78-3" data-name="path78" d="M164.8,120.4c0-16.5,17.5-30,38.9-30,21.6,0,38.9,13.4,38.9,30s-17.5,30-38.9,30c-21.4-.2-38.9-13.5-38.9-30" fill="none" stroke="#000" stroke-linecap="round" stroke-linejoin="round" stroke-width="0.67"/></g><g id="Text"><text transform="translate(18.7 47.4)" font-size="10" font-family="SegoePrint, Segoe Print">Rückgabe</text><text transform="translate(5.36 102.57)" font-size="10" font-family="SegoePrint, Segoe Print">Rechnungsstellung</text><text transform="translate(17.38 178.4)" font-size="9" font-family="SegoePrint, Segoe Print"><tspan letter-spacing="-0.01em">T</tspan><tspan x="5.96" y="0" letter-spacing="0em">r</tspan><tspan x="10.59" y="0">eue</tspan></text><text transform="translate(138.04 219.05)" font-size="9" font-family="SegoePrint, Segoe Print">Konten</text><text transform="translate(265.51 247.76)" font-size="9" font-family="SegoePrint, Segoe Print"><tspan letter-spacing="-0.02em">C</tspan><tspan x="6.12" y="0">allcenter</tspan></text><text transform="translate(296.19 145.06)" font-size="9" font-family="SegoePrint, Segoe Print">D<tspan x="7.15" y="0" letter-spacing="0.01em">r</tspan><tspan x="11.82" y="0">ittanbieter</tspan></text><text transform="translate(213.18 15.85)" font-size="9" font-family="SegoePrint, Segoe Print"><tspan letter-spacing="-0.06em">T</tspan><tspan x="5.52" y="0">eilen von</tspan><tspan x="3.26" y="10.8">Drohnen</tspan></text><text transform="translate(5.6 244.49)" font-size="9" font-family="SegoePrint, Segoe Print">Benutze<tspan x="36.17" y="0" letter-spacing="0.03em">r</tspan><tspan x="41.01" y="0">bewe</tspan><tspan x="63.54" y="0" letter-spacing="0.04em">r</tspan><tspan x="68.52" y="0">tung</tspan></text><text transform="translate(393.23 238.35)" font-size="9" font-family="SegoePrint, Segoe Print">E<tspan x="6.16" y="0" letter-spacing="-0.04em">T</tspan><tspan x="11.85" y="0">A-</tspan><tspan x="24.62" y="0" letter-spacing="0.01em">A</tspan><tspan x="31.7" y="0">nalyse</tspan></text><text transform="translate(185.5 124.55)" font-size="11" font-family="SegoePrint, Segoe Print"><tspan letter-spacing="0.01em">L</tspan><tspan x="7.03" y="0">iefer-</tspan></text><text transform="translate(80.75 36.25)" font-size="9" font-family="SegoePrint, Segoe Print">Videoübe<tspan x="40.18" y="0" letter-spacing="0.03em">r</tspan><tspan x="45.03" y="0">wachung</tspan></text><text transform="translate(278.7 53.05)" font-size="9" font-family="SegoePrint, Segoe Print"><tspan letter-spacing="-0.02em">V</tspan><tspan x="6.28" y="0">e</tspan><tspan x="10.96" y="0" letter-spacing="0.03em">r</tspan><tspan x="15.81" y="0">walten </tspan><tspan x="-6.09" y="10.8">von Drohnen</tspan></text><text transform="translate(403.44 31.28)" font-size="9" font-family="SegoePrint, Segoe Print"><tspan letter-spacing="-0.03em">P</tspan><tspan x="6.1" y="0" letter-spacing="0em">r</tspan><tspan x="10.72" y="0">edictive </tspan><tspan x="1.75" y="10.8" letter-spacing="0.01em">A</tspan><tspan x="8.84" y="10.8">nalytics</tspan></text><text transform="translate(387.55 110.1)" font-size="9" font-family="SegoePrint, Segoe Print">Drohnen<tspan x="39.07" y="0" letter-spacing="0em">r</tspan><tspan x="43.7" y="0">eparatur</tspan></text></g></svg>