<svg xmlns="http://www.w3.org/2000/svg" viewBox="0 0 457.04 220.02"><title>OJ103614597</title><g id="Shapes"><rect x="1.75" y="141.37" width="176.99" height="49.51" fill="#fff"/><path d="M178.23,141.87v48.51H2.25V141.87h176m1-1H1.25v50.51h178Z"/><line x1="40.33" y1="141.47" x2="40.33" y2="116.21" fill="none" stroke="#000" stroke-miterlimit="10"/><circle cx="40.33" cy="111.4" r="4.81" fill="none" stroke="#000" stroke-miterlimit="10"/><line x1="140.15" y1="141.47" x2="140.15" y2="116.21" fill="none" stroke="#000" stroke-miterlimit="10"/><circle cx="140.15" cy="111.4" r="4.81" fill="none" stroke="#000" stroke-miterlimit="10"/><rect x="1.75" y="0.5" width="77.17" height="53.12" fill="#fff"/><path d="M78.42,1V53.12H2.25V1H78.42m1-1H1.25V54.12H79.42Z"/><line x1="40.33" y1="53.68" x2="40.33" y2="94.61" fill="none" stroke="#000" stroke-miterlimit="10"/><polygon points="35.35 93.15 40.33 101.78 45.32 93.15 35.35 93.15"/><rect x="101.56" y="0.5" width="77.17" height="53.12" fill="#fff"/><path d="M178.23,1V53.12H102.07V1h76.16m1-1H101.07V54.12h78.16Z"/><line x1="140.15" y1="53.68" x2="140.15" y2="94.61" fill="none" stroke="#000" stroke-miterlimit="10"/><polygon points="135.16 93.15 140.15 101.78 145.14 93.15 135.16 93.15"/><line x1="318.14" y1="141.47" x2="318.14" y2="116.21" fill="none" stroke="#000" stroke-miterlimit="10"/><circle cx="318.14" cy="111.4" r="4.81" fill="none" stroke="#000" stroke-miterlimit="10"/><line x1="417.95" y1="141.47" x2="417.95" y2="116.21" fill="none" stroke="#000" stroke-miterlimit="10"/><circle cx="417.95" cy="111.4" r="4.81" fill="none" stroke="#000" stroke-miterlimit="10"/><rect x="279.55" y="0.5" width="77.17" height="53.12" fill="#fff"/><path d="M356.22,1V53.12H280.05V1h76.17m1-1H279.05V54.12h78.17Z"/><line x1="318.14" y1="53.68" x2="318.14" y2="94.61" fill="none" stroke="#000" stroke-miterlimit="10"/><polygon points="313.15 93.15 318.14 101.78 323.12 93.15 313.15 93.15"/><rect x="379.37" y="0.5" width="77.17" height="53.12" fill="#fff"/><path d="M456,1V53.12H379.87V1H456m1-1H378.87V54.12H457Z"/><line x1="417.95" y1="53.68" x2="417.95" y2="94.61" fill="none" stroke="#000" stroke-miterlimit="10"/><polygon points="412.97 93.15 417.95 101.78 422.94 93.15 412.97 93.15"/><rect x="279.55" y="139.56" width="77.17" height="53.12" fill="#fff"/><path d="M356.22,140.06v52.12H280.05V140.06h76.17m1-1H279.05v54.12h78.17Z"/><rect x="379.37" y="139.56" width="77.17" height="53.12" fill="#fff"/><path d="M456,140.06v52.12H379.87V140.06H456m1-1H378.87v54.12H457Z"/></g><g id="Text"><text transform="translate(110.7 30.22)" font-size="14.5" font-family="SegoeUI, Segoe UI">V2-Client</text><text transform="translate(10.67 30.22)" font-size="14.5" font-family="SegoeUI, Segoe UI">V1-Client</text><text transform="translate(50.55 114.41)" font-size="14.5" font-family="SegoeUI, Segoe UI">V1</text><text transform="translate(65.73 169.24)" font-size="14.5" font-family="SegoeUI, Segoe UI">Dienst</text><text transform="translate(32.23 202.68)" font-size="13" font-family="SegoeUI-Italic, Segoe UI" font-style="italic">Dienst un<tspan x="53.73" y="0" letter-spacing="0em">t</tspan><tspan x="57.94" y="0">e</tspan><tspan x="64.27" y="0" letter-spacing="0.01em">r</tspan><tspan x="69.01" y="0">stützt</tspan><tspan x="8.17" y="14">z</tspan><tspan x="14.05" y="14" letter-spacing="0em">w</tspan><tspan x="23.44" y="14">ei </tspan><tspan x="36.71" y="14" letter-spacing="-0.05em">V</tspan><tspan x="44.25" y="14">e</tspan><tspan x="50.58" y="14" letter-spacing="0.01em">r</tspan><tspan x="55.32" y="14">sionen</tspan></text><text transform="translate(149.61 115.61)" font-size="14.5" font-family="SegoeUI, Segoe UI">V2</text><text transform="translate(388.51 30.22)" font-size="14.5" font-family="SegoeUI, Segoe UI">V2-Client</text><text transform="translate(288.48 30.22)" font-size="14.5" font-family="SegoeUI, Segoe UI">V1-Client</text><text transform="translate(328.36 114.41)" font-size="14.5" font-family="SegoeUI, Segoe UI">V1</text><text transform="translate(300.71 212.01)" font-size="13" font-family="SegoeUI-Italic, Segoe UI" font-style="italic"><tspan letter-spacing="-0.02em">P</tspan><tspan x="7.28" y="0">a</tspan><tspan x="14.33" y="0" letter-spacing="-0.01em">r</tspan><tspan x="18.85" y="0">allele Be</tspan><tspan x="66" y="0" letter-spacing="0em">r</tspan><tspan x="70.63" y="0">eits</tspan><tspan x="89.66" y="0" letter-spacing="0em">t</tspan><tspan x="93.88" y="0">ellung</tspan></text><text transform="translate(427.42 115.61)" font-size="14.5" font-family="SegoeUI, Segoe UI">V2</text><text transform="translate(286.47 169.54)" font-size="14.4" font-family="SegoeUI, Segoe UI">V1-Dienst</text><text transform="translate(386.14 169.54)" font-size="14.4" font-family="SegoeUI, Segoe UI">V2-Dienst</text></g></svg>