<svg xmlns="http://www.w3.org/2000/svg" viewBox="0 0 751.91 266.87"><defs><style>.cls-1{fill:none;stroke:#afafaf;stroke-miterlimit:10;stroke-width:6px;}.cls-2{fill:#afafaf;}.cls-3{fill:#3fa0ec;}.cls-4{font-size:16px;fill:#fff;font-family:ArialMT, Arial;}</style></defs><title>OJ103514635</title><g id="Shapes"><line class="cls-1" x1="104" y1="152" x2="119.24" y2="152"/><polygon class="cls-2" points="117.05 159.48 130 152 117.05 144.52 117.05 159.48"/><line class="cls-1" x1="107" y1="56.86" x2="119.24" y2="56.86"/><polygon class="cls-2" points="117.05 64.34 130 56.86 117.05 49.38 117.05 64.34"/><line class="cls-1" x1="596" y1="104.87" x2="612.23" y2="104.88"/><polygon class="cls-2" points="610.04 112.35 623 104.88 610.05 97.39 610.04 112.35"/><line class="cls-1" x1="460" y1="169.82" x2="612.24" y2="169.22"/><polygon class="cls-2" points="610.07 176.71 623 169.19 610.02 161.75 610.07 176.71"/><line class="cls-1" x1="465" y1="134.18" x2="477.22" y2="134.18"/><polygon class="cls-2" points="475.03 141.66 487.99 134.18 475.03 126.7 475.03 141.66"/><line class="cls-1" x1="460" y1="39.05" x2="612.24" y2="39.64"/><polygon class="cls-2" points="610.02 47.11 623 39.68 610.07 32.15 610.02 47.11"/><line class="cls-1" x1="465" y1="74.68" x2="477.22" y2="74.68"/><polygon class="cls-2" points="475.03 82.16 487.99 74.68 475.03 67.2 475.03 82.16"/><rect class="cls-3" x="129.5" y="118.64" width="182" height="67" rx="8" ry="8"/><rect class="cls-3" x="315.5" y="118.36" width="150" height="67" rx="8" ry="8"/><rect class="cls-3" x="315.5" y="23.36" width="150" height="67" rx="8" ry="8"/><rect class="cls-3" x="129.5" y="23.36" width="182" height="67" rx="8" ry="8"/><rect class="cls-3" x="623" width="128" height="209" rx="8" ry="8"/><rect class="cls-3" x="0.25" width="107" height="209" rx="8" ry="8"/><rect class="cls-3" y="217.87" width="751" height="49" rx="8" ry="8"/><rect class="cls-3" x="488.75" y="52.5" width="114" height="104" rx="8" ry="8"/></g><g id="txt"><text class="cls-4" transform="translate(322.55 246.32)">Orchestrierung</text><text class="cls-4" transform="translate(502.51 97.77)">Analytischer <tspan x="-8.01" y="19.2">Datenspeicher</tspan></text><text class="cls-4" transform="translate(643.42 97.33)">Analyse und <tspan x="-16.45" y="19.2">Berichterstattung</tspan></text><text class="cls-4" transform="translate(325.57 60.53)">Batchverarbeitung</text><text class="cls-4" transform="translate(320.13 156.78)">Streamverarbeitung</text><text class="cls-4" transform="translate(142.82 146.98)">Nachrichtenerfassung <tspan x="40.91" y="19.2">in Echtzeit</tspan></text><text class="cls-4" transform="translate(170.16 61.13)">Datenspeicher</text><text class="cls-4" transform="translate(6.48 106.16)">Datenquellen</text></g></svg>