<svg xmlns="http://www.w3.org/2000/svg" viewBox="0 0 396.94 352.2"><defs><style>.cls-1{fill:none;stroke:#afafaf;stroke-miterlimit:10;stroke-width:6px;}.cls-2{fill:#afafaf;}.cls-3{fill:#3fa0ec;}.cls-10,.cls-4{fill:#2a3282;}.cls-5,.cls-9{fill:#fff;}.cls-6{isolation:isolate;}.cls-11,.cls-6{font-size:18.04px;fill:#0070c0;}.cls-10,.cls-11,.cls-6,.cls-9{font-family:ArialMT, Arial;}.cls-7{letter-spacing:-0.06em;}.cls-8{letter-spacing:-0.02em;}.cls-9{font-size:14px;}.cls-10{font-size:18px;}</style></defs><title>OJ103514622</title><g id="Shapes"><line class="cls-1" x1="145.44" y1="247.92" x2="295.68" y2="247.92"/><polygon class="cls-2" points="147.63 255.4 134.68 247.92 147.63 240.44 147.63 255.4"/><line class="cls-1" x1="335.79" y1="69.71" x2="335.79" y2="183.95"/><polygon class="cls-2" points="328.31 181.76 335.79 194.71 343.27 181.76 328.31 181.76"/><rect class="cls-3" x="3.74" y="211.53" width="130.75" height="71.66" rx="8" ry="8"/><line class="cls-1" x1="134.67" y1="52.36" x2="284.91" y2="52.36"/><polygon class="cls-2" points="282.73 59.84 295.68 52.36 282.73 44.88 282.73 59.84"/><rect class="cls-3" x="3.74" y="16.53" width="130.75" height="71.66" rx="8" ry="8"/><path class="cls-4" d="M292.11,72.38V88c0,7.26,14.53,15.34,33.64,16.7h12.64C357.51,103.35,372,96.9,372,89.36V15.87C372,7.79,354,0,331.91,0s-39.84,7.26-39.84,15.63V72.38Z" transform="translate(3.74 0.01)"/><ellipse class="cls-5" cx="335.79" cy="15.53" rx="31.25" ry="9.91"/><path class="cls-4" d="M292.11,267.38V283c0,7.26,14.53,15.34,33.64,16.7h12.64c19.12-1.35,33.64-7.8,33.64-15.34V210.87c0-8.08-18-15.88-40.12-15.88s-39.84,7.26-39.84,15.63v56.76Z" transform="translate(3.74 0.01)"/><ellipse class="cls-5" cx="335.79" cy="210.53" rx="31.25" ry="9.91"/></g><g id="txt"><text class="cls-6" transform="translate(168.69 46.13)">Ereignisse</text><text class="cls-6" transform="translate(210.15 149.13)"><tspan class="cls-7">V</tspan><tspan x="11.04" y="0">erö</tspan><tspan class="cls-8" x="37.11" y="0">f</tspan><tspan x="41.8" y="0">fentlichen</tspan></text><text class="cls-9" transform="translate(317.12 51.74)">Ereig­-<tspan x="-16.73" y="16.8">nisspeicher</tspan></text><text class="cls-10" transform="translate(11.14 252.76)">Abfragemodell</text><text class="cls-10" transform="translate(12.65 56.02)">Befehlsmodell</text><text class="cls-11" transform="translate(279.65 323.68)">Materialisierte <tspan x="36.09" y="21.65">Sicht</tspan></text><text class="cls-6" transform="translate(186.22 240.13)">Lesen</text></g></svg>