<svg xmlns="http://www.w3.org/2000/svg" viewBox="0 0 728 385.19"><defs><style>.cls-1{fill:#3fa0ec;}.cls-2{fill:#8fb6cc;}.cls-10,.cls-11,.cls-12,.cls-14,.cls-3{fill:none;}.cls-3{stroke:#afafaf;stroke-width:6px;}.cls-10,.cls-11,.cls-12,.cls-14,.cls-3,.cls-6,.cls-7,.cls-8,.cls-9{stroke-miterlimit:10;}.cls-4{fill:#afafaf;}.cls-5{fill:#217da5;}.cls-6{fill:red;}.cls-6,.cls-7,.cls-8,.cls-9{stroke:#fff;}.cls-7{fill:#f9c943;}.cls-8{fill:#39b54a;}.cls-9{fill:#88bee2;}.cls-10,.cls-11,.cls-12{stroke:#0070c0;stroke-width:2px;}.cls-11{stroke-dasharray:5.91 5.91;}.cls-12{stroke-dasharray:5.88 5.88;}.cls-13,.cls-19{fill:#0070c0;}.cls-14{stroke:#8e8e8e;stroke-width:3px;}.cls-15{fill:#8e8e8e;}.cls-16,.cls-17,.cls-19,.cls-22,.cls-24{isolation:isolate;}.cls-16{font-size:19.34px;fill:#213d47;}.cls-16,.cls-17,.cls-18,.cls-19,.cls-20,.cls-21,.cls-22,.cls-24,.cls-25,.cls-26{font-family:ArialMT, Arial;}.cls-17{font-size:18.77px;}.cls-17,.cls-18,.cls-20,.cls-21,.cls-24,.cls-25{fill:#fff;}.cls-18{font-size:14px;}.cls-19,.cls-20{font-size:18.04px;}.cls-21{font-size:16px;letter-spacing:-0.03em;}.cls-22,.cls-26{font-size:15px;fill:#383838;}.cls-23{letter-spacing:-0.06em;}.cls-24{font-size:15.58px;}.cls-25{font-size:15.61px;letter-spacing:-0.03em;}</style></defs><title>OJ103514673</title><g id="Shapes"><rect class="cls-1" x="623" y="105.14" width="105" height="57" rx="8" ry="8"/><path class="cls-2" d="M68,42a4,4,0,0,1,4,4V376a4,4,0,0,1-4,4H8a4,4,0,0,1-4-4V46a4,4,0,0,1,4-4H68m0-4H8a8,8,0,0,0-8,8V376a8,8,0,0,0,8,8H68a8,8,0,0,0,8-8V46A8,8,0,0,0,68,38Z"/><rect class="cls-1" x="116" y="332.15" width="73.04" height="52.03" rx="8" ry="8"/><line class="cls-3" x1="76" y1="171" x2="224.24" y2="171"/><polygon class="cls-4" points="222.05 178.48 235 171 222.05 163.52 222.05 178.48"/><rect class="cls-5" x="379.68" y="36.31" width="204" height="60" rx="8" ry="8"/><polygon class="cls-6" points="431.28 42.23 403.48 42.23 389.58 66.31 403.48 90.38 431.28 90.38 445.18 66.31 431.28 42.23"/><rect class="cls-5" x="379.68" y="103.64" width="204" height="60" rx="8" ry="8"/><polygon class="cls-7" points="431.28 109.56 403.48 109.56 389.58 133.64 403.48 157.72 431.28 157.72 445.18 133.64 431.28 109.56"/><rect class="cls-5" x="379.68" y="170.97" width="204" height="60" rx="8" ry="8"/><polygon class="cls-8" points="431.28 176.9 403.48 176.9 389.58 200.97 403.48 225.05 431.28 225.05 445.18 200.97 431.28 176.9"/><rect class="cls-5" x="379.68" y="238.31" width="204" height="60" rx="8" ry="8"/><polygon class="cls-9" points="431.28 244.23 403.48 244.23 389.58 268.31 403.48 292.38 431.28 292.38 445.18 268.31 431.28 244.23"/><polyline class="cls-10" points="596.68 304 596.68 307 593.68 307"/><line class="cls-11" x1="587.77" y1="307" x2="362.63" y2="307"/><polyline class="cls-10" points="359.68 307 356.68 307 356.68 304"/><line class="cls-12" x1="356.68" y1="298.12" x2="356.68" y2="6.94"/><polyline class="cls-10" points="356.68 4 356.68 1 359.68 1"/><line class="cls-11" x1="365.59" y1="1" x2="590.73" y2="1"/><polyline class="cls-10" points="593.68 1 596.68 1 596.68 4"/><line class="cls-12" x1="596.68" y1="9.88" x2="596.68" y2="301.06"/><rect class="cls-10" x="475.25" y="339.44" width="120" height="44.75"/><line class="cls-10" x1="447.58" y1="362" x2="464.91" y2="361.9"/><polygon class="cls-13" points="463.48 366.89 472.1 361.87 463.44 356.92 463.48 366.89"/><line class="cls-10" x1="535.25" y1="331.82" x2="535.25" y2="310"/><polygon class="cls-13" points="540.25 330.37 535.25 339 530.27 330.37 540.25 330.37"/><line class="cls-10" x1="400.97" y1="339" x2="400.97" y2="317.18"/><polygon class="cls-13" points="405.96 318.63 400.97 310 395.98 318.63 405.96 318.63"/><rect class="cls-10" x="356.68" y="339.44" width="88.57" height="44.75"/><line class="cls-14" x1="330" y1="171" x2="374.52" y2="262.83"/><polygon class="cls-15" points="368.84 263.79 378 270 378.8 258.96 368.84 263.79"/><line class="cls-3" x1="584" y1="134" x2="612.24" y2="134"/><polygon class="cls-4" points="610.05 141.48 623 134 610.05 126.52 610.05 141.48"/><line class="cls-14" x1="330" y1="171" x2="374.69" y2="73.24"/><polygon class="cls-15" points="379.05 77.02 378 66 368.98 72.42 379.05 77.02"/><line class="cls-14" x1="330" y1="171" x2="373.41" y2="141.48"/><polygon class="cls-15" points="375.19 146.97 380 137 368.96 137.81 375.19 146.97"/><line class="cls-14" x1="330" y1="171" x2="373.17" y2="196.9"/><polygon class="cls-15" points="368.93 200.81 380 201 374.63 191.32 368.93 200.81"/><rect class="cls-1" x="235.36" y="38" width="95" height="260" rx="8" ry="8"/><rect class="cls-1" x="219.5" y="332.15" width="86.72" height="52.03" rx="8" ry="8"/><line class="cls-3" x1="86.76" y1="358.17" x2="116" y2="358.17"/><polygon class="cls-4" points="88.95 365.65 76 358.17 88.95 350.69 88.95 365.65"/><line class="cls-3" x1="199.76" y1="358.17" x2="219" y2="358.17"/><polygon class="cls-4" points="201.95 365.65 189 358.17 201.95 350.69 201.95 365.65"/><line class="cls-3" x1="76" y1="69.49" x2="85.24" y2="69.49"/><polygon class="cls-4" points="83.05 76.97 96 69.49 83.05 62.01 83.05 76.97"/><line class="cls-3" x1="215" y1="69.49" x2="224.24" y2="69.49"/><polygon class="cls-4" points="222.05 76.97 235 69.49 222.05 62.01 222.05 76.97"/><rect class="cls-1" x="95.68" y="37.66" width="120" height="63.66" rx="8" ry="8"/></g><g id="Layer_2" data-name="Layer 2"><text class="cls-16" transform="translate(15.22 208.99) scale(0.93 1)">Client</text><text class="cls-17" transform="translate(481.14 70.43) scale(0.96 1)">Dienst</text><text class="cls-17" transform="translate(481.14 137.76) scale(0.96 1)">Dienst</text><text class="cls-17" transform="translate(481.14 205.09) scale(0.96 1)">Dienst</text><text class="cls-17" transform="translate(481.14 272.43) scale(0.96 1)">Dienst</text><text class="cls-18" transform="translate(102.82 74.37)">Identitätsanbieter</text><text class="cls-19" transform="translate(424.55 26.42)">Microservices</text><text class="cls-20" transform="translate(266.65 151.58)">API-<tspan x="-18.05" y="21.65">Gateway</tspan></text><text class="cls-21" transform="translate(630.47 137.33)">Remotedienst</text><text class="cls-22" transform="translate(363.86 365.11)"><tspan class="cls-23">V</tspan><tspan x="9.18" y="0">erwaltung</tspan></text><text class="cls-24" transform="translate(137.15 361.59) scale(0.97 1)">CDN</text><text class="cls-25" transform="translate(230.26 352.14)">Statischer <tspan x="14.67" y="18.73">Inhalt</tspan></text><text class="cls-26" transform="translate(481.5 365.95)">Dienstermittlung</text></g></svg>