<svg xmlns="http://www.w3.org/2000/svg" viewBox="0 0 786 353.13"><defs><style>.cls-1,.cls-3{fill:none;stroke:#afafaf;stroke-width:6px;}.cls-1{stroke-miterlimit:10;}.cls-2{fill:#afafaf;}.cls-3{stroke-linejoin:bevel;}.cls-4{fill:#3fa0ec;}.cls-5{fill:#8fb6cc;}.cls-6,.cls-7,.cls-9{isolation:isolate;}.cls-6,.cls-9{font-size:18px;}.cls-6{fill:#213d47;}.cls-10,.cls-6,.cls-7,.cls-9{font-family:ArialMT, Arial;}.cls-7{font-size:17.97px;}.cls-10,.cls-7,.cls-9{fill:#fff;}.cls-8{letter-spacing:-0.04em;}.cls-10{font-size:18.04px;}.cls-11{letter-spacing:-0.02em;}.cls-12{letter-spacing:-0.04em;}</style></defs><title>OJ103514636</title><g id="Shapes"><line class="cls-1" x1="548.76" y1="209.38" x2="655" y2="209.38"/><polygon class="cls-2" points="550.95 216.86 538 209.38 550.95 201.9 550.95 216.86"/><line class="cls-1" x1="525" y1="36.38" x2="644.24" y2="36.38"/><polygon class="cls-2" points="642.05 43.86 655 36.38 642.05 28.9 642.05 43.86"/><line class="cls-1" x1="524" y1="109.38" x2="644.24" y2="110.31"/><polygon class="cls-2" points="642 117.77 655 110.38 642.1 102.81 642 117.77"/><line class="cls-3" x1="524" y1="272.87" x2="645.23" y2="272.7"/><polygon class="cls-2" points="643.05 280.18 656 272.68 643.04 265.22 643.05 280.18"/><line class="cls-1" x1="548.76" y1="143.38" x2="655" y2="143.38"/><polygon class="cls-2" points="550.95 150.86 538 143.38 550.95 135.9 550.95 150.86"/><line class="cls-1" x1="300" y1="272.38" x2="448.24" y2="272.38"/><polygon class="cls-2" points="446.05 279.86 459 272.38 446.05 264.9 446.05 279.86"/><rect class="cls-4" x="194.5" y="0.38" width="106" height="352.75" rx="8" ry="8"/><rect class="cls-4" x="458.75" width="79" height="186" rx="8" ry="8"/><rect class="cls-4" x="458.75" y="193.78" width="79" height="158" rx="8" ry="8"/><rect class="cls-4" x="318.75" y="242.73" width="115.75" height="60.1" rx="8" ry="8"/><rect class="cls-4" x="569" y="121.38" width="61.75" height="109" rx="8" ry="8"/><line class="cls-1" x1="300" y1="72.38" x2="448.24" y2="73.32"/><polygon class="cls-2" points="446.01 80.79 459 73.38 446.09 65.83 446.01 80.79"/><rect class="cls-4" x="655" width="131" height="73" rx="8" ry="8"/><rect class="cls-4" x="655" y="81.78" width="131" height="270" rx="8" ry="8"/><rect class="cls-4" x="100.25" y="83.88" width="70" height="185.75" rx="8" ry="8"/><line class="cls-1" x1="170" y1="176.76" x2="183.24" y2="176.76"/><polygon class="cls-2" points="181.05 184.24 194 176.76 181.05 169.28 181.05 184.24"/><path class="cls-5" d="M68,4.38a4,4,0,0,1,4,4v335a4,4,0,0,1-4,4H8a4,4,0,0,1-4-4V8.38a4,4,0,0,1,4-4H68m0-4H8a8,8,0,0,0-8,8v335a8,8,0,0,0,8,8H68a8,8,0,0,0,8-8V8.38A8,8,0,0,0,68,.38Z"/><line class="cls-1" x1="76" y1="176.76" x2="89.24" y2="176.76"/><polygon class="cls-2" points="87.05 184.24 100 176.76 87.05 169.28 87.05 184.24"/></g><g id="txt"><text class="cls-6" transform="translate(15.21 179.85)">Client</text><text class="cls-7" transform="translate(117.21 180.71) scale(0.97 1)"><tspan class="cls-8">W</tspan><tspan x="16.29" y="0">AF</tspan></text><text class="cls-9" transform="translate(575.86 179.71)">Cache</text><text class="cls-10" transform="translate(204.18 179.74)"><tspan class="cls-11">W</tspan><tspan x="16.7" y="0">ebebene</tspan></text><text class="cls-9" transform="translate(334.1 276.59)">Messaging</text><text class="cls-10" transform="translate(470.18 76.24)">Mittlere <tspan x="-0.01" y="21.65">Schicht </tspan><tspan x="24.55" y="43.3">1</tspan></text><text class="cls-10" transform="translate(469.18 256.89)">Mittlere <tspan x="-0.01" y="21.65">Schicht </tspan><tspan x="24.55" y="43.3">2</tspan></text><text class="cls-10" transform="translate(665.85 39.62)">Remotedienst</text><text class="cls-10" transform="translate(700.74 220.41)">Data<tspan class="cls-12" x="4.76" y="21.65">T</tspan><tspan x="15.11" y="21.65">ier</tspan></text></g></svg>