<svg xmlns="http://www.w3.org/2000/svg" viewBox="0 0 801.65 325.43"><defs><style>.cls-1,.cls-3{fill:none;stroke:#afafaf;stroke-width:6px;}.cls-1{stroke-miterlimit:10;}.cls-2{fill:#afafaf;}.cls-3{stroke-linejoin:bevel;}.cls-4{fill:#3fa0ec;}.cls-5{fill:#8fb6cc;}.cls-10,.cls-6,.cls-8{isolation:isolate;}.cls-6,.cls-8{font-size:18px;}.cls-10,.cls-11,.cls-12,.cls-6{fill:#fff;}.cls-10,.cls-11,.cls-12,.cls-6,.cls-8{font-family:ArialMT, Arial;}.cls-7{letter-spacing:-0.02em;}.cls-8{fill:#213d47;}.cls-9{letter-spacing:-0.04em;}.cls-10{font-size:17.97px;}.cls-11{font-size:14px;}.cls-12{font-size:18.04px;}.cls-13{letter-spacing:-0.02em;}</style></defs><title>OJ103514640</title><g id="Shapes"><line class="cls-1" x1="602.76" y1="155.93" x2="700" y2="155.93"/><polygon class="cls-2" points="604.95 163.41 592 155.93 604.95 148.45 604.95 163.41"/><line class="cls-1" x1="348.76" y1="293.85" x2="703" y2="293.85"/><polygon class="cls-2" points="350.95 301.33 338 293.85 350.95 286.37 350.95 301.33"/><line class="cls-1" x1="590" y1="174.93" x2="689.24" y2="174.93"/><polygon class="cls-2" points="687.05 182.41 700 174.93 687.05 167.45 687.05 182.41"/><line class="cls-1" x1="348.76" y1="88.43" x2="706.01" y2="88.43"/><polygon class="cls-2" points="350.95 95.91 337.99 88.42 350.95 80.95 350.95 95.91"/><line class="cls-1" x1="338" y1="68.93" x2="689.24" y2="68.93"/><polygon class="cls-2" points="687.05 76.41 700 68.92 687.05 61.45 687.05 76.41"/><line class="cls-3" x1="337.99" y1="24.46" x2="691.24" y2="24.46"/><polygon class="cls-2" points="689.05 31.94 702.01 24.46 689.05 16.98 689.05 31.94"/><line class="cls-1" x1="215" y1="65.41" x2="228.24" y2="65.41"/><polygon class="cls-2" points="226.05 72.89 239 65.41 226.05 57.94 226.05 72.89"/><rect class="cls-4" x="515.55" y="104.93" width="76" height="145.04" rx="8" ry="8"/><path class="cls-5" d="M68,5.72a4,4,0,0,1,4,4v306a4,4,0,0,1-4,4H8a4,4,0,0,1-4-4V9.72a4,4,0,0,1,4-4H68m0-4H8a8,8,0,0,0-8,8v306a8,8,0,0,0,8,8H68a8,8,0,0,0,8-8V9.72A8,8,0,0,0,68,1.72Z"/><line class="cls-1" x1="74" y1="65.41" x2="88.24" y2="65.41"/><polygon class="cls-2" points="86.05 72.89 99 65.41 86.05 57.94 86.05 72.89"/><line class="cls-1" x1="338" y1="214.95" x2="350.24" y2="214.95"/><polygon class="cls-2" points="348.05 222.43 361 214.95 348.05 207.47 348.05 222.43"/><rect class="cls-4" x="700" width="100" height="48.93" rx="8" ry="8"/><rect class="cls-4" x="700" y="265.43" width="100" height="60" rx="8" ry="8"/><rect class="cls-4" x="700" y="55.18" width="100" height="204" rx="8" ry="8"/><rect class="cls-4" x="361.18" y="184.97" width="132.64" height="60" rx="8" ry="8"/><rect class="cls-4" x="238.45" y="1.59" width="100" height="257.34" rx="8" ry="8"/><rect class="cls-4" x="238.45" y="263.85" width="100" height="60" rx="8" ry="8"/><rect class="cls-4" x="98.73" y="33.59" width="117" height="63.66" rx="8" ry="8"/><line class="cls-1" x1="494" y1="214.97" x2="505.24" y2="214.97"/><polygon class="cls-2" points="503.05 222.45 516 214.97 503.05 207.49 503.05 222.45"/><line class="cls-1" x1="86.76" y1="293.85" x2="238" y2="293.85"/><polygon class="cls-2" points="88.95 301.33 76 293.85 88.95 286.37 88.95 301.33"/><rect class="cls-4" x="620" y="75.93" width="61.75" height="92" rx="8" ry="8"/></g><g id="Layer_2" data-name="Layer 2"><text class="cls-6" transform="translate(524.71 174.93)"><tspan class="cls-7">W</tspan><tspan x="16.66" y="0">orker</tspan></text><text class="cls-8" transform="translate(13.21 160.85)">Client</text><text class="cls-6" transform="translate(707.56 168.38)">Datenbank</text><text class="cls-6" transform="translate(368.41 218.92)"><tspan class="cls-9">W</tspan><tspan x="16.32" y="0">arteschlange</tspan></text><text class="cls-10" transform="translate(270.47 297.79) scale(0.97 1)">CDN</text><text class="cls-6" transform="translate(624.75 125.88)">Cache</text><text class="cls-11" transform="translate(102.18 70.37)">Identitätsanbieter</text><text class="cls-12" transform="translate(243.91 129.85)"><tspan class="cls-13">W</tspan><tspan x="16.7" y="0">eb-Front-</tspan><tspan x="29.39" y="21.65">End</tspan></text><text class="cls-11" transform="translate(707.9 29.34)">Remotedienst</text><text class="cls-11" transform="translate(718.88 290.31)">Statischer <tspan x="14" y="16.8">Inhalt</tspan></text></g></svg>